<svg id="Calque_1" data-name="Calque 1" xmlns="http://www.w3.org/2000/svg" viewBox="0 0 254.22 40"><path d="M184.2,23.28A8.33,8.33,0,0,1,181,22.7,5.86,5.86,0,0,1,178.72,21a4.84,4.84,0,0,1-1-2.47h3.61a2.38,2.38,0,0,0,.9,1.4,3.16,3.16,0,0,0,1.93.56,2.59,2.59,0,0,0,1.71-.47,1.44,1.44,0,0,0,.56-1.1,1.17,1.17,0,0,0-.79-1.2,12.59,12.59,0,0,0-2.18-.64c-.6-.14-1.21-.29-1.82-.48a9.41,9.41,0,0,1-1.71-.7,4,4,0,0,1-1.23-1.12,3,3,0,0,1-.48-1.71A4,4,0,0,1,179.67,10a7.35,7.35,0,0,1,8.06-.11A4.66,4.66,0,0,1,189.5,13h-3.39c-.21-1-1-1.54-2.33-1.54a2.68,2.68,0,0,0-1.56.39,1.17,1.17,0,0,0-.54,1c0,.41.28.73.82,1a12.61,12.61,0,0,0,2.15.67,24.42,24.42,0,0,1,2.66.76,4.3,4.3,0,0,1,2,1.2,3.19,3.19,0,0,1,.73,2.27,3.85,3.85,0,0,1-.67,2.32,4.73,4.73,0,0,1-2,1.63A7.57,7.57,0,0,1,184.2,23.28ZM198.93,23a5.38,5.38,0,0,1-3.5-1.07q-1.32-1.06-1.32-3.78v-6h-2.38v-3h2.38l.42-3.72h3.16V9.06h3.76v3h-3.76v6.07a1.87,1.87,0,0,0,.42,1.4,2.47,2.47,0,0,0,1.52.37h1.73V23Zm5.59,0V9.06h3.2l.33,2.6a5.79,5.79,0,0,1,2-2.12,5.65,5.65,0,0,1,3.08-.82V12.5h-1a5.5,5.5,0,0,0-2.1.37,2.88,2.88,0,0,0-1.46,1.26,5.18,5.18,0,0,0-.5,2.49V23Zm15.89.33a6.64,6.64,0,0,1-2.94-.56,3.93,3.93,0,0,1-2.27-3.64A3.82,3.82,0,0,1,216.72,16a7.12,7.12,0,0,1,4.53-1.21h3.53v-.33a2.58,2.58,0,0,0-.81-2.1,3,3,0,0,0-2-.67,3.33,3.33,0,0,0-1.9.53,2.17,2.17,0,0,0-1,1.51h-3.5a4.88,4.88,0,0,1,1-2.63,5.69,5.69,0,0,1,2.29-1.71A7.75,7.75,0,0,1,222,8.72a6.9,6.9,0,0,1,4.68,1.49,5.26,5.26,0,0,1,1.7,4.2V23h-3.05L225,20.71a5.21,5.21,0,0,1-1.74,1.85A5.06,5.06,0,0,1,220.41,23.28Zm.81-2.8a2.92,2.92,0,0,0,2.38-1,4.89,4.89,0,0,0,1.1-2.5h-3.06a3.08,3.08,0,0,0-2,.54,1.55,1.55,0,0,0-.62,1.26A1.48,1.48,0,0,0,219.6,20,2.75,2.75,0,0,0,221.22,20.48Zm10.56,8.63v-20H235l.39,2a6.44,6.44,0,0,1,1.76-1.63,5.45,5.45,0,0,1,2.89-.7,6.5,6.5,0,0,1,3.5,1,6.77,6.77,0,0,1,2.43,2.6,7.7,7.7,0,0,1,.9,3.75,7.7,7.7,0,0,1-.9,3.75,6.85,6.85,0,0,1-2.43,2.58,6.65,6.65,0,0,1-3.5.92,6.12,6.12,0,0,1-2.75-.58,5,5,0,0,1-1.9-1.66v8.07Zm7.48-9A3.81,3.81,0,0,0,242.09,19a4.08,4.08,0,0,0,1.12-3,4.14,4.14,0,0,0-1.12-3,4,4,0,0,0-5.69,0,4.14,4.14,0,0,0-1.09,3,4.26,4.26,0,0,0,1.09,3A3.85,3.85,0,0,0,239.26,20.15ZM252,6.9a2.32,2.32,0,0,1-1.62-.58,2,2,0,0,1-.62-1.49,1.86,1.86,0,0,1,.62-1.45A2.28,2.28,0,0,1,252,2.79a2.18,2.18,0,0,1,1.6.59,1.81,1.81,0,0,1,.64,1.45,1.94,1.94,0,0,1-.64,1.49A2.22,2.22,0,0,1,252,6.9Zm-1.79,16V9.06h3.58V23Z" style="fill:#8e75ff"/><path d="M52.33,22.55V9.19H57.6a5.73,5.73,0,0,1,2.59.54,3.83,3.83,0,0,1,1.64,1.52,4.58,4.58,0,0,1,.56,2.3,4.4,4.4,0,0,1-.57,2.29,3.7,3.7,0,0,1-1.66,1.46,6.17,6.17,0,0,1-2.63.51H54V15.54h3.07a3.53,3.53,0,0,0,1.35-.22,1.7,1.7,0,0,0,.8-.66,2.22,2.22,0,0,0,.26-1.11,2.29,2.29,0,0,0-.26-1.12,1.73,1.73,0,0,0-.81-.69,3.33,3.33,0,0,0-1.35-.24H55.15V22.55Zm7.22-6.08,3.32,6.08H59.75L56.5,16.47Z" style="fill:#fff"/><path d="M63,22.55V9.19h9v2.33H65.83V14.7h5.72V17H65.83v3.19H72v2.33Z" style="fill:#fff"/><path d="M80.13,13a1.64,1.64,0,0,0-.67-1.23,2.65,2.65,0,0,0-1.61-.43,3.12,3.12,0,0,0-1.17.19,1.68,1.68,0,0,0-.72.53,1.28,1.28,0,0,0-.26.77,1.18,1.18,0,0,0,.16.63,1.44,1.44,0,0,0,.46.46,2.87,2.87,0,0,0,.68.33,6.08,6.08,0,0,0,.82.24l1.2.29a8.11,8.11,0,0,1,1.6.52,4.9,4.9,0,0,1,1.27.8,3.37,3.37,0,0,1,.83,1.12,3.49,3.49,0,0,1,.3,1.48,3.69,3.69,0,0,1-.62,2.13,4,4,0,0,1-1.77,1.39,7.1,7.1,0,0,1-2.79.49,7.36,7.36,0,0,1-2.82-.5,4,4,0,0,1-1.86-1.47,4.29,4.29,0,0,1-.7-2.41h2.73a2,2,0,0,0,.39,1.11,2,2,0,0,0,.92.68,3.55,3.55,0,0,0,1.3.22,3.37,3.37,0,0,0,1.25-.21,1.91,1.91,0,0,0,.83-.58,1.31,1.31,0,0,0,.29-.85,1.1,1.1,0,0,0-.26-.76,2.08,2.08,0,0,0-.77-.52,6.75,6.75,0,0,0-1.24-.39l-1.45-.37a6.06,6.06,0,0,1-2.67-1.28,3,3,0,0,1-1-2.36,3.44,3.44,0,0,1,.65-2.12,4.3,4.3,0,0,1,1.8-1.42A6.57,6.57,0,0,1,77.87,9a6.35,6.35,0,0,1,2.6.5,4.14,4.14,0,0,1,1.73,1.42,3.7,3.7,0,0,1,.64,2.1Z" style="fill:#fff"/><path d="M83,11.52V9.19H94v2.33H89.91v11H87.12v-11Z" style="fill:#fff"/><path d="M105,22.81a6.36,6.36,0,0,1-3.43-.88,5.7,5.7,0,0,1-2.2-2.43,7.86,7.86,0,0,1-.77-3.58,7.9,7.9,0,0,1,.78-3.59,5.81,5.81,0,0,1,2.21-2.44A6.43,6.43,0,0,1,105,9a6.56,6.56,0,0,1,2.88.6,5,5,0,0,1,2,1.68,5,5,0,0,1,.85,2.53h-3a2.91,2.91,0,0,0-.86-1.62,2.57,2.57,0,0,0-1.83-.65,2.89,2.89,0,0,0-1.69.52,3.35,3.35,0,0,0-1.14,1.49,5.93,5.93,0,0,0-.4,2.31,6.09,6.09,0,0,0,.4,2.34,3.39,3.39,0,0,0,1.12,1.51,2.87,2.87,0,0,0,1.71.53,2.8,2.8,0,0,0,1.25-.27,2.47,2.47,0,0,0,.93-.77,3,3,0,0,0,.51-1.23h3a5.13,5.13,0,0,1-.83,2.51,4.9,4.9,0,0,1-2,1.71A6.51,6.51,0,0,1,105,22.81Z" style="fill:#fff"/><path d="M115.9,22.82a5.43,5.43,0,0,1-2.28-.46A3.64,3.64,0,0,1,112,21a4,4,0,0,1-.59-2.21,3.75,3.75,0,0,1,.42-1.87A3.23,3.23,0,0,1,113,15.75a5.83,5.83,0,0,1,1.63-.68,14.33,14.33,0,0,1,1.89-.33c.78-.08,1.41-.16,1.9-.22a2.72,2.72,0,0,0,1.07-.32.73.73,0,0,0,.33-.66v0a2,2,0,0,0-.58-1.53,2.39,2.39,0,0,0-1.68-.54,3,3,0,0,0-1.83.51,2.47,2.47,0,0,0-.91,1.19l-2.94-.42a4.67,4.67,0,0,1,1.15-2,5,5,0,0,1,2-1.23A7.51,7.51,0,0,1,117.53,9a8.27,8.27,0,0,1,1.92.23,5.47,5.47,0,0,1,1.75.74,3.87,3.87,0,0,1,1.28,1.41,4.62,4.62,0,0,1,.48,2.22v8.94h-3V20.71h-.1a3.58,3.58,0,0,1-.81,1,3.74,3.74,0,0,1-1.29.78A5.32,5.32,0,0,1,115.9,22.82Zm.82-2.31a3.46,3.46,0,0,0,1.65-.38,2.74,2.74,0,0,0,1.07-1,2.58,2.58,0,0,0,.38-1.36V16.18a1.57,1.57,0,0,1-.5.23,7.14,7.14,0,0,1-.79.18l-.86.14-.74.1a5.52,5.52,0,0,0-1.26.32,2.18,2.18,0,0,0-.88.6,1.54,1.54,0,0,0-.32,1,1.49,1.49,0,0,0,.63,1.31A2.76,2.76,0,0,0,116.72,20.51Z" style="fill:#fff"/><path d="M130.74,22.81a6.36,6.36,0,0,1-3.43-.88,5.7,5.7,0,0,1-2.2-2.43,7.86,7.86,0,0,1-.77-3.58,7.9,7.9,0,0,1,.78-3.59,5.81,5.81,0,0,1,2.21-2.44A6.43,6.43,0,0,1,130.72,9a6.64,6.64,0,0,1,2.89.6,5.06,5.06,0,0,1,2,1.68,5,5,0,0,1,.85,2.53h-3a2.91,2.91,0,0,0-.86-1.62,2.57,2.57,0,0,0-1.83-.65,2.89,2.89,0,0,0-1.69.52,3.35,3.35,0,0,0-1.14,1.49,5.93,5.93,0,0,0-.4,2.31,6.09,6.09,0,0,0,.4,2.34,3.34,3.34,0,0,0,1.13,1.51A3,3,0,0,0,132,20a2.47,2.47,0,0,0,.93-.77,3,3,0,0,0,.51-1.23h3a5.13,5.13,0,0,1-.83,2.51,4.9,4.9,0,0,1-2,1.71A6.51,6.51,0,0,1,130.74,22.81Z" style="fill:#fff"/><path d="M141,14.72v7.83h-3.15V4.73h3.08v6.73h.16a3.94,3.94,0,0,1,1.45-1.79A4.45,4.45,0,0,1,145,9a4.86,4.86,0,0,1,2.43.59,3.93,3.93,0,0,1,1.6,1.7,6,6,0,0,1,.57,2.74v8.51h-3.15v-8a3,3,0,0,0-.69-2.1,2.49,2.49,0,0,0-1.93-.75,3,3,0,0,0-1.49.36,2.58,2.58,0,0,0-1,1A3.34,3.34,0,0,0,141,14.72Z" style="fill:#fff"/><path d="M157.54,22.81a6.83,6.83,0,0,1-3.47-.84,5.6,5.6,0,0,1-2.24-2.38,8,8,0,0,1-.78-3.64,8,8,0,0,1,.78-3.62A5.88,5.88,0,0,1,154,9.89,6.22,6.22,0,0,1,157.37,9a7,7,0,0,1,2.34.4,5.27,5.27,0,0,1,1.94,1.22,5.62,5.62,0,0,1,1.34,2.1,8.61,8.61,0,0,1,.49,3v1h-11V14.61h7.94a3.55,3.55,0,0,0-.39-1.62A2.85,2.85,0,0,0,159,11.88a2.94,2.94,0,0,0-1.59-.41,3.08,3.08,0,0,0-1.69.46,3.25,3.25,0,0,0-1.14,1.22,3.54,3.54,0,0,0-.41,1.65v1.85a4.25,4.25,0,0,0,.43,2,3,3,0,0,0,1.19,1.27,3.54,3.54,0,0,0,1.79.44,3.71,3.71,0,0,0,1.24-.2,2.64,2.64,0,0,0,1-.58,2.45,2.45,0,0,0,.62-.94l2.94.33a4.67,4.67,0,0,1-1.06,2,5.15,5.15,0,0,1-2,1.34A7.64,7.64,0,0,1,157.54,22.81Z" style="fill:#fff"/><g style="opacity:0.9745630025863647"><g style="opacity:0.9745630025863647"><path d="M26.49,27.18v-13a.85.85,0,0,0-.84-.84H12.74V0H39a.83.83,0,0,1,.83.84V27.18Z" style="fill:#8e75ff;fill-rule:evenodd;opacity:0.9745630025863647;isolation:isolate"/><path d="M12.74,0V13.37H.42A.42.42,0,0,1,0,13a.4.4,0,0,1,.12-.29Z" style="fill:#8e75ff;fill-rule:evenodd;opacity:0.40498900413513184;isolation:isolate"/><path d="M26.49,39.56V27.18H39.81L27.2,39.86a.42.42,0,0,1-.71-.3Z" style="fill:#8e75ff;fill-rule:evenodd;opacity:0.40498900413513184;isolation:isolate"/><path d="M12.74,13.37H26.07a.42.42,0,0,1,.42.42V27.18H13.58a.83.83,0,0,1-.84-.83Z" style="fill:#8e75ff;fill-rule:evenodd;opacity:0.40498900413513184;isolation:isolate"/></g></g><polygon points="164.72 25.8 171.72 0.94 175.22 0.94 168.19 25.8 164.72 25.8" style="fill:#fff"/></svg>